<mxfile host="app.diagrams.net" modified="2021-03-14T10:53:05.852Z" agent="5.0 (Windows NT 10.0; Win64; x64) AppleWebKit/537.36 (KHTML, like Gecko) Chrome/89.0.4389.82 Safari/537.36" etag="hO03cveJqoY9p2VSwdJV" version="14.4.8" type="github">
  <diagram id="kgpKYQtTHZ0yAKxKKP6v" name="Page-1">
    <mxGraphModel dx="1038" dy="548" grid="1" gridSize="10" guides="1" tooltips="1" connect="1" arrows="1" fold="1" page="1" pageScale="1" pageWidth="850" pageHeight="1100" math="0" shadow="0">
      <root>
        <mxCell id="0" />
        <mxCell id="1" parent="0" />
        <mxCell id="HoIK4X1TnnVUayoXimBi-24" value="Teleportkapu aszteroidÃ¡ja felrobban" style="shape=umlFrame;whiteSpace=wrap;html=1;width=120;height=50;" vertex="1" parent="1">
          <mxGeometry x="40" y="20" width="680" height="420" as="geometry" />
        </mxCell>
        <mxCell id="HoIK4X1TnnVUayoXimBi-43" value="opt" style="shape=umlFrame;whiteSpace=wrap;html=1;width=50;height=15;" vertex="1" parent="1">
          <mxGeometry x="110" y="255" width="555" height="90" as="geometry" />
        </mxCell>
        <mxCell id="HoIK4X1TnnVUayoXimBi-25" value="opt" style="shape=umlFrame;whiteSpace=wrap;html=1;width=50;height=15;" vertex="1" parent="1">
          <mxGeometry x="110" y="120" width="400" height="60" as="geometry" />
        </mxCell>
        <mxCell id="HoIK4X1TnnVUayoXimBi-26" value="tp: Teleportkapu" style="shape=umlLifeline;perimeter=lifelinePerimeter;whiteSpace=wrap;html=1;container=1;collapsible=0;recursiveResize=0;outlineConnect=0;" vertex="1" parent="1">
          <mxGeometry x="180" y="40" width="100" height="390" as="geometry" />
        </mxCell>
        <mxCell id="HoIK4X1TnnVUayoXimBi-27" value="" style="html=1;points=[];perimeter=orthogonalPerimeter;" vertex="1" parent="HoIK4X1TnnVUayoXimBi-26">
          <mxGeometry x="45" y="70" width="10" height="250" as="geometry" />
        </mxCell>
        <mxCell id="HoIK4X1TnnVUayoXimBi-28" value="" style="html=1;verticalAlign=bottom;endArrow=open;dashed=1;endSize=8;entryX=0.002;entryY=0.811;entryDx=0;entryDy=0;entryPerimeter=0;" edge="1" parent="HoIK4X1TnnVUayoXimBi-26" target="HoIK4X1TnnVUayoXimBi-24">
          <mxGeometry x="1" y="-52" relative="1" as="geometry">
            <mxPoint x="-100" y="320" as="targetPoint" />
            <mxPoint x="-15" y="2" as="offset" />
            <mxPoint x="45" y="320" as="sourcePoint" />
          </mxGeometry>
        </mxCell>
        <mxCell id="HoIK4X1TnnVUayoXimBi-29" value="" style="html=1;points=[];perimeter=orthogonalPerimeter;" vertex="1" parent="HoIK4X1TnnVUayoXimBi-26">
          <mxGeometry x="55" y="170" width="10" height="40" as="geometry" />
        </mxCell>
        <mxCell id="HoIK4X1TnnVUayoXimBi-30" value="Elront()" style="edgeStyle=orthogonalEdgeStyle;html=1;align=left;spacingLeft=2;endArrow=block;rounded=0;entryX=1;entryY=0;" edge="1" parent="HoIK4X1TnnVUayoXimBi-26" target="HoIK4X1TnnVUayoXimBi-29" source="HoIK4X1TnnVUayoXimBi-27">
          <mxGeometry relative="1" as="geometry">
            <mxPoint x="50" y="150" as="sourcePoint" />
            <Array as="points">
              <mxPoint x="85" y="150" />
              <mxPoint x="85" y="170" />
            </Array>
          </mxGeometry>
        </mxCell>
        <mxCell id="HoIK4X1TnnVUayoXimBi-31" value="" style="shape=umlDestroy;whiteSpace=wrap;html=1;strokeWidth=3;" vertex="1" parent="HoIK4X1TnnVUayoXimBi-26">
          <mxGeometry x="35" y="340" width="30" height="30" as="geometry" />
        </mxCell>
        <mxCell id="HoIK4X1TnnVUayoXimBi-32" value="par: Teleportkapu" style="shape=umlLifeline;perimeter=lifelinePerimeter;whiteSpace=wrap;html=1;container=1;collapsible=0;recursiveResize=0;outlineConnect=0;" vertex="1" parent="1">
          <mxGeometry x="570" y="30" width="100" height="420" as="geometry" />
        </mxCell>
        <mxCell id="HoIK4X1TnnVUayoXimBi-33" value="" style="html=1;points=[];perimeter=orthogonalPerimeter;" vertex="1" parent="HoIK4X1TnnVUayoXimBi-32">
          <mxGeometry x="45" y="281.5" width="10" height="29" as="geometry" />
        </mxCell>
        <mxCell id="HoIK4X1TnnVUayoXimBi-34" value="" style="html=1;points=[];perimeter=orthogonalPerimeter;" vertex="1" parent="HoIK4X1TnnVUayoXimBi-32">
          <mxGeometry x="45" y="240" width="10" height="29" as="geometry" />
        </mxCell>
        <mxCell id="HoIK4X1TnnVUayoXimBi-36" value="sajatAszteroida: Aszteroida" style="shape=umlLifeline;perimeter=lifelinePerimeter;whiteSpace=wrap;html=1;container=1;collapsible=0;recursiveResize=0;outlineConnect=0;" vertex="1" parent="1">
          <mxGeometry x="410" y="30" width="100" height="300" as="geometry" />
        </mxCell>
        <mxCell id="HoIK4X1TnnVUayoXimBi-37" value="" style="html=1;points=[];perimeter=orthogonalPerimeter;" vertex="1" parent="HoIK4X1TnnVUayoXimBi-36">
          <mxGeometry x="45" y="110" width="10" height="30" as="geometry" />
        </mxCell>
        <mxCell id="HoIK4X1TnnVUayoXimBi-38" value="2. RemoveSzomszed(tp)" style="html=1;verticalAlign=bottom;endArrow=block;" edge="1" parent="1" target="HoIK4X1TnnVUayoXimBi-37">
          <mxGeometry relative="1" as="geometry">
            <mxPoint x="235" y="140" as="sourcePoint" />
            <mxPoint x="460.5" y="140" as="targetPoint" />
          </mxGeometry>
        </mxCell>
        <mxCell id="HoIK4X1TnnVUayoXimBi-39" value="" style="html=1;verticalAlign=bottom;endArrow=open;dashed=1;endSize=8;exitX=0;exitY=0.95;" edge="1" parent="1" source="HoIK4X1TnnVUayoXimBi-37">
          <mxGeometry x="-0.164" y="64" relative="1" as="geometry">
            <mxPoint x="235" y="168.5" as="targetPoint" />
            <mxPoint as="offset" />
          </mxGeometry>
        </mxCell>
        <mxCell id="HoIK4X1TnnVUayoXimBi-40" value="3. RemoveSzomszed(tp)" style="html=1;verticalAlign=bottom;endArrow=block;entryX=0.2;entryY=0.052;entryDx=0;entryDy=0;entryPerimeter=0;" edge="1" parent="1" target="HoIK4X1TnnVUayoXimBi-33" source="HoIK4X1TnnVUayoXimBi-27">
          <mxGeometry relative="1" as="geometry">
            <mxPoint x="230" y="313.5" as="sourcePoint" />
            <mxPoint x="620" y="240.5" as="targetPoint" />
          </mxGeometry>
        </mxCell>
        <mxCell id="HoIK4X1TnnVUayoXimBi-41" value="" style="html=1;verticalAlign=bottom;endArrow=open;dashed=1;endSize=8;exitX=0;exitY=0.95;" edge="1" parent="1" source="HoIK4X1TnnVUayoXimBi-33" target="HoIK4X1TnnVUayoXimBi-27">
          <mxGeometry x="0.0117" y="82" relative="1" as="geometry">
            <mxPoint x="230" y="339.5" as="targetPoint" />
            <mxPoint as="offset" />
          </mxGeometry>
        </mxCell>
        <mxCell id="HoIK4X1TnnVUayoXimBi-42" value="[sajatAszteroida&lt;br&gt;&amp;nbsp;not null]" style="text;html=1;align=center;verticalAlign=middle;resizable=0;points=[];autosize=1;" vertex="1" parent="1">
          <mxGeometry x="115" y="150" width="100" height="30" as="geometry" />
        </mxCell>
        <mxCell id="HoIK4X1TnnVUayoXimBi-44" value="[par not null]" style="text;html=1;align=center;verticalAlign=middle;resizable=0;points=[];autosize=1;" vertex="1" parent="1">
          <mxGeometry x="135" y="290" width="80" height="20" as="geometry" />
        </mxCell>
        <mxCell id="HoIK4X1TnnVUayoXimBi-45" value="3. SetPar(null)" style="html=1;verticalAlign=bottom;endArrow=block;entryX=0.2;entryY=0.052;entryDx=0;entryDy=0;entryPerimeter=0;" edge="1" parent="1" source="HoIK4X1TnnVUayoXimBi-27">
          <mxGeometry x="0.137" y="3" relative="1" as="geometry">
            <mxPoint x="230" y="274.49" as="sourcePoint" />
            <mxPoint x="617" y="273.99800000000005" as="targetPoint" />
            <mxPoint as="offset" />
          </mxGeometry>
        </mxCell>
        <mxCell id="HoIK4X1TnnVUayoXimBi-46" value="1. RemoveSzomszed(a)" style="html=1;verticalAlign=bottom;endArrow=block;entryX=0;entryY=0;exitX=0;exitY=0.217;exitDx=0;exitDy=0;exitPerimeter=0;" edge="1" parent="1" source="HoIK4X1TnnVUayoXimBi-24" target="HoIK4X1TnnVUayoXimBi-27">
          <mxGeometry x="-0.1111" relative="1" as="geometry">
            <mxPoint x="90" y="110" as="sourcePoint" />
            <mxPoint as="offset" />
          </mxGeometry>
        </mxCell>
        <mxCell id="HoIK4X1TnnVUayoXimBi-35" value="" style="html=1;verticalAlign=bottom;endArrow=open;dashed=1;endSize=8;exitX=0;exitY=0.95;" edge="1" parent="1" source="HoIK4X1TnnVUayoXimBi-34" target="HoIK4X1TnnVUayoXimBi-27">
          <mxGeometry x="0.0117" y="82" relative="1" as="geometry">
            <mxPoint x="230" y="298" as="targetPoint" />
            <mxPoint as="offset" />
          </mxGeometry>
        </mxCell>
      </root>
    </mxGraphModel>
  </diagram>
</mxfile>
